<?xml version="1.0" standalone="no"?>
<!DOCTYPE svg PUBLIC "-//W3C//DTD SVG 20010904//EN"
 "http://www.w3.org/TR/2001/REC-SVG-20010904/DTD/svg10.dtd">
<svg version="1.0" xmlns="http://www.w3.org/2000/svg"
 width="264.000000pt" height="264.000000pt" viewBox="0 0 264.000000 264.000000"
 preserveAspectRatio="xMidYMid meet">
<metadata>
Created by potrace 1.14, written by Peter Selinger 2001-2017
</metadata>
<g transform="translate(0.000000,264.000000) scale(0.100000,-0.100000)"
fill="#000000" stroke="none">
<path d="M797 1904 c-3 -4 -21 -8 -40 -9 -46 -2 -137 -49 -174 -88 -32 -34
-89 -137 -76 -137 5 0 1 -5 -7 -10 -12 -8 -12 -10 5 -11 l20 0 -20 -9 c-14 -6
-16 -9 -5 -10 8 -2 19 -2 23 -1 5 1 6 -3 2 -8 -3 -6 -11 -8 -18 -5 -9 3 -14
-7 -15 -31 -2 -19 2 -35 8 -35 5 0 10 -5 10 -11 0 -5 -4 -8 -9 -4 -14 8 8 -64
32 -107 11 -20 24 -35 29 -32 4 3 8 -2 8 -11 0 -19 23 -45 39 -45 6 0 11 -4
11 -10 0 -5 7 -10 15 -10 8 0 15 -4 15 -8 0 -12 60 -31 77 -25 10 4 14 2 10
-4 -4 -6 2 -13 13 -16 21 -5 28 7 10 18 -5 3 -10 12 -10 18 0 7 5 4 11 -5 5
-9 16 -15 24 -12 8 4 13 10 10 14 -3 5 3 7 12 6 20 -3 28 -21 14 -31 -7 -4 -8
0 -4 10 5 15 3 15 -16 4 -11 -8 -21 -16 -21 -19 0 -13 51 -4 60 10 8 12 10 12
11 -5 0 -11 3 -15 5 -8 3 7 12 9 21 6 12 -5 14 -3 8 7 -6 10 -4 12 9 7 25 -10
90 19 83 38 -4 8 1 19 11 24 16 9 16 11 -3 26 -20 16 -19 16 3 5 26 -13 28
-26 6 -38 -10 -6 -13 -12 -6 -16 5 -3 24 10 41 29 l30 35 34 -30 c19 -17 39
-30 43 -30 5 0 2 5 -6 11 -13 9 -13 10 0 6 8 -2 14 -11 12 -19 -1 -9 9 -20 25
-26 16 -5 37 -13 48 -18 32 -11 47 -14 100 -15 54 -1 73 2 93 14 6 5 17 5 22
2 6 -3 10 -1 10 4 0 6 3 10 8 9 5 -2 32 13 71 38 1 2 0 8 -4 14 -5 8 -12 5
-22 -7 -13 -17 -13 -16 -3 5 12 24 26 29 33 10 3 -10 7 -10 20 1 23 18 22 37
0 20 -17 -13 -17 -13 -3 5 14 18 13 19 -2 13 -18 -6 -35 8 -20 17 5 3 27 -8
50 -25 25 -18 42 -25 44 -18 2 7 15 14 29 16 18 2 20 1 9 -6 -8 -5 -17 -8 -21
-5 -4 2 -10 -3 -13 -12 -8 -22 -9 -21 18 -21 17 0 23 4 19 13 -3 8 -1 14 5 14
6 0 9 -8 7 -17 -1 -10 -10 -17 -19 -17 -19 2 -12 -12 14 -26 16 -9 18 -8 13 6
-4 12 -3 15 5 10 7 -4 12 -13 12 -21 0 -14 55 -34 107 -39 106 -12 282 76 267
132 -6 19 -9 21 -23 10 -14 -12 -14 -11 -2 5 17 22 20 22 30 -4 7 -21 9 -19
32 17 27 45 31 61 17 71 -6 3 -8 1 -4 -5 3 -6 1 -14 -6 -18 -7 -4 -10 -4 -6 1
4 4 1 17 -7 29 -8 11 -15 25 -15 31 1 5 6 1 13 -10 19 -31 43 -30 45 2 0 16 3
40 5 56 2 15 0 30 -5 33 -5 3 -7 13 -4 21 4 9 2 12 -7 7 -8 -5 -7 -2 2 9 12
15 9 21 -11 18 -5 0 -8 4 -8 9 0 6 5 10 11 10 17 0 -31 77 -75 121 -45 44 -52
47 -58 21 -3 -10 -12 -19 -21 -19 -9 0 -14 4 -11 9 3 5 9 6 14 3 9 -5 21 31
13 39 -3 3 -13 -3 -22 -12 -9 -10 -12 -12 -7 -5 11 16 -3 33 -30 38 -11 2 -19
4 -19 6 0 1 -10 3 -22 4 -17 2 -23 -3 -23 -16 0 -11 5 -18 12 -16 6 1 13 -7
15 -18 3 -18 2 -18 -5 -2 -4 10 -12 17 -17 15 -6 -2 -13 11 -16 27 -4 17 -7
23 -8 15 -1 -9 -4 -11 -9 -5 -9 13 -32 17 -32 6 0 -5 3 -11 8 -14 4 -2 0 -1
-8 1 -24 8 -75 3 -78 -8 -2 -6 -9 -7 -15 -3 -7 4 -8 0 -3 -12 5 -14 4 -15 -6
-7 -14 11 -35 3 -81 -34 -29 -24 -37 -57 -12 -48 8 4 13 9 11 13 -3 4 -1 13 4
21 7 11 9 9 7 -8 -2 -38 -29 -45 -60 -16 -15 14 -32 22 -37 19 -6 -4 -7 1 -3
12 3 10 3 15 -2 11 -4 -4 -13 -1 -19 6 -13 17 -90 61 -81 46 3 -5 2 -10 -4
-10 -5 0 -11 4 -13 9 -1 6 -16 12 -32 15 -16 3 -31 8 -34 10 -3 3 -11 -3 -19
-14 -8 -11 -19 -20 -25 -20 -7 0 -3 7 8 15 18 14 18 15 -4 12 -25 -4 -44 -25
-36 -39 3 -5 10 -6 15 -3 5 4 9 1 9 -4 0 -14 -13 -14 -28 1 -7 7 -8 17 -1 30
12 23 12 23 -58 -4 -53 -19 -121 -72 -116 -89 1 -4 -7 -9 -17 -12 -12 -3 -20
0 -20 7 0 6 -9 20 -21 29 -15 14 -24 15 -34 7 -10 -8 -15 -8 -20 0 -4 6 -4 14
-1 17 3 4 6 1 6 -6 0 -7 5 -9 10 -6 8 5 7 11 -1 21 -6 7 -15 11 -20 8 -5 -3
-9 -1 -9 4 0 12 -51 31 -104 39 -26 3 -36 2 -32 -5 4 -6 -3 -16 -14 -22 -12
-6 -20 -7 -20 -1 0 5 7 11 15 13 9 2 11 8 7 16 -5 7 -11 9 -15 6z m-27 -29 c0
-8 -2 -15 -4 -15 -2 0 -6 7 -10 15 -3 8 -1 15 4 15 6 0 10 -7 10 -15z m111 -3
c-7 -2 -18 1 -23 6 -8 8 -4 9 13 5 13 -4 18 -8 10 -11z m465 -7 c-3 -9 -10
-14 -15 -11 -5 4 -12 1 -14 -4 -3 -6 -4 -5 -2 2 1 7 8 12 14 11 6 -2 11 5 11
14 0 9 3 14 6 10 4 -3 4 -13 0 -22z m559 15 c3 -5 1 -10 -4 -10 -6 0 -11 5
-11 10 0 6 2 10 4 10 3 0 8 -4 11 -10z m-1160 -21 c-8 -11 -42 -12 -49 0 -3 4
6 6 21 3 19 -4 24 -2 18 8 -5 9 -4 11 4 6 6 -4 9 -12 6 -17z m651 1 c5 1 10
-4 12 -12 3 -11 2 -11 -6 0 -5 8 -13 13 -18 12 -5 -1 -10 4 -12 12 -3 11 -2
11 6 0 5 -8 13 -13 18 -12z m-546 0 c0 -5 -4 -10 -10 -10 -5 0 -10 5 -10 10 0
6 5 10 10 10 6 0 10 -4 10 -10z m98 -8 c2 -6 -7 -16 -20 -22 -21 -10 -21 -10
-5 3 22 18 22 22 -3 24 -13 1 -18 -2 -14 -9 4 -7 2 -8 -5 -4 -6 4 -9 12 -6 17
8 12 48 5 53 -9z m880 -3 c2 -8 0 -10 -5 -4 -12 15 -47 19 -37 4 4 -8 3 -10
-5 -5 -6 4 -9 12 -6 17 9 13 48 4 53 -12z m116 9 c-3 -5 -10 -5 -16 -2 -6 4
-8 -2 -4 -17 3 -13 3 -18 0 -11 -3 6 -10 9 -16 6 -6 -4 -6 0 0 13 6 11 18 20
26 20 8 0 13 -4 10 -9z m-500 -14 c3 -8 2 -12 -4 -9 -6 3 -10 1 -10 -6 0 -7
-2 -10 -5 -7 -5 5 4 38 10 38 2 0 6 -7 9 -16z m296 -9 c14 -19 14 -19 -2 -6
-14 11 -18 11 -18 1 0 -8 -2 -11 -5 -8 -3 3 -3 13 1 22 4 9 7 16 8 14 1 -2 8
-12 16 -23z m24 9 c3 -8 2 -12 -4 -9 -6 3 -10 10 -10 16 0 14 7 11 14 -7z
m-1074 -6 c0 -11 -12 -10 -30 2 -12 7 -10 9 8 7 12 0 22 -5 22 -9z m119 2 c-6
-5 -18 -6 -26 -3 -19 8 -16 11 13 11 17 0 22 -3 13 -8z m71 0 c0 -5 -2 -10 -4
-10 -3 0 -8 5 -11 10 -3 6 -1 10 4 10 6 0 11 -4 11 -10z m310 0 c0 -5 -4 -10
-10 -10 -5 0 -10 5 -10 10 0 6 5 10 10 10 6 0 10 -4 10 -10z m43 -4 c4 -10 1
-13 -9 -9 -15 6 -19 23 -5 23 5 0 11 -7 14 -14z m147 4 c8 -5 11 -10 5 -10 -5
0 -17 5 -25 10 -8 5 -10 10 -5 10 6 0 17 -5 25 -10z m283 -7 c-4 -9 -2 -14 3
-10 6 3 16 1 24 -4 12 -7 10 -8 -7 -6 -28 4 -37 12 -28 26 10 17 15 13 8 -6z
m-993 -18 c0 -2 -6 -7 -12 -11 -7 -4 -10 -4 -6 1 4 4 0 14 -10 22 -15 13 -15
13 6 3 12 -6 22 -13 22 -15z m810 0 c-13 -15 -35 -11 -24 6 3 5 10 7 15 4 5
-4 9 -1 9 6 0 7 3 9 6 6 4 -4 1 -13 -6 -22z m-854 3 c4 -7 3 -8 -4 -4 -7 4
-12 2 -12 -5 0 -7 -3 -10 -6 -6 -6 5 3 27 11 27 2 0 7 -5 11 -12z m94 8 c0 -2
-7 -7 -16 -10 -8 -3 -12 -2 -9 4 6 10 25 14 25 6z m243 -11 c4 -8 3 -16 -1
-19 -4 -3 -9 4 -9 15 -2 23 3 25 10 4z m183 -10 c2 -10 1 -22 -2 -26 -6 -11
-34 0 -34 13 0 6 7 5 16 -3 14 -11 15 -10 12 7 -1 10 -7 23 -13 27 -6 5 -4 7
4 5 8 -2 15 -13 17 -23z m-139 -2 c-4 -3 0 -11 9 -18 14 -10 14 -13 -3 -26
-17 -13 -17 -13 -3 5 14 18 13 19 -3 13 -12 -5 -16 -3 -11 5 5 8 1 9 -12 5
-18 -7 -18 -7 0 8 20 15 35 21 23 8z m502 4 c-2 -1 -13 -9 -24 -17 -19 -14
-19 -14 -6 3 7 9 18 17 24 17 6 0 8 -1 6 -3z m145 -13 c3 -8 2 -12 -4 -9 -6 3
-10 10 -10 16 0 14 7 11 14 -7z m353 -6 c2 -18 0 -20 -7 -8 -12 18 -13 30 -2
30 4 0 9 -10 9 -22z m-1362 2 c3 -6 -1 -7 -9 -4 -18 7 -21 14 -7 14 6 0 13 -4
16 -10z m1402 4 c-3 -3 -12 -4 -19 -1 -8 3 -5 6 6 6 11 1 17 -2 13 -5z m-1437
-14 c0 -5 -4 -10 -10 -10 -5 0 -10 5 -10 10 0 6 5 10 10 10 6 0 10 -4 10 -10z
m903 4 c-7 -3 -9 -13 -6 -22 4 -14 3 -14 -5 -2 -12 16 -7 30 11 29 9 0 9 -2 0
-5z m42 -12 c-3 -3 -11 0 -18 7 -9 10 -8 11 6 5 10 -3 15 -9 12 -12z m508 -17
c-4 -11 -1 -13 11 -9 9 3 16 2 16 -4 0 -20 -35 -5 -36 16 -1 12 2 19 7 16 4
-2 6 -11 2 -19z m-1483 -1 c0 -8 5 -12 10 -9 6 3 10 4 10 1 0 -16 -21 -13 -30
4 -7 13 -7 20 0 20 5 0 10 -7 10 -16z m54 8 c3 -5 -1 -9 -9 -9 -8 0 -12 4 -9
9 3 4 7 8 9 8 2 0 6 -4 9 -8z m481 -2 c3 -6 -1 -7 -9 -4 -18 7 -21 14 -7 14 6
0 13 -4 16 -10z m430 -8 c-3 -3 -11 0 -18 7 -9 10 -8 11 6 5 10 -3 15 -9 12
-12z m85 3 c-7 -8 -17 -15 -23 -15 -6 0 -2 7 9 15 25 19 30 19 14 0z m410 11
c0 -3 -4 -8 -10 -11 -5 -3 -10 -1 -10 4 0 6 5 11 10 11 6 0 10 -2 10 -4z
m-1009 -29 c-10 -9 -11 -8 -5 6 3 10 9 15 12 12 3 -3 0 -11 -7 -18z m-464 -28
c2 -24 0 -23 -16 8 -9 18 -9 22 2 18 7 -3 13 -15 14 -26z m1484 14 c13 -16 12
-17 -3 -4 -10 7 -18 15 -18 17 0 8 8 3 21 -13z m40 -23 c6 0 7 5 3 12 -4 7 -3
8 5 4 16 -10 5 -25 -18 -23 -12 1 -17 6 -13 16 4 10 7 11 10 3 2 -7 8 -12 13
-12z m-1531 -34 c-1 -6 -6 -1 -13 12 -7 12 -17 19 -22 15 -4 -4 -5 -2 0 6 7
12 10 11 22 -4 7 -11 13 -24 13 -29z m1547 -25 c2 -24 -12 -36 -23 -20 -4 7
-3 9 4 5 7 -4 10 2 9 14 -1 11 -6 19 -12 16 -7 -2 -12 2 -12 9 0 23 32 -1 34
-24z m-1552 0 c3 -5 0 -13 -6 -17 -7 -4 -9 -3 -5 4 3 5 0 13 -6 15 -9 4 -10 6
-1 6 6 1 14 -3 18 -8z m1575 -41 c0 -5 -2 -10 -4 -10 -3 0 -8 5 -11 10 -3 6
-1 10 4 10 6 0 11 -4 11 -10z m-25 -21 c-4 -5 -12 -9 -18 -8 -9 0 -8 2 1 6 6
2 9 10 6 15 -4 7 -2 8 5 4 6 -4 9 -12 6 -17z m-1555 1 c0 -5 -2 -10 -4 -10 -3
0 -8 5 -11 10 -3 6 -1 10 4 10 6 0 11 -4 11 -10z m-10 -20 c18 -12 2 -12 -25
0 -13 6 -15 9 -5 9 8 0 22 -4 30 -9z m1580 0 c-8 -5 -19 -10 -25 -10 -5 0 -3
5 5 10 8 5 20 10 25 10 6 0 3 -5 -5 -10z m-1590 -48 c-6 -2 -7 -9 -4 -14 4 -6
2 -8 -4 -5 -5 4 -8 16 -5 28 4 16 8 17 14 7 5 -7 4 -14 -1 -16z m33 -21 c-5
-3 -13 -15 -16 -25 -4 -10 -10 -17 -13 -14 -8 9 18 58 29 51 5 -3 6 -8 0 -12z
m1510 -21 c-10 -11 -19 -20 -21 -20 -1 0 2 9 8 20 6 11 15 20 20 20 6 0 2 -9
-7 -20z m27 -35 c0 -5 -5 -3 -10 5 -8 12 -10 12 -10 1 0 -8 -2 -12 -5 -9 -3 3
-2 13 1 22 5 14 9 15 15 4 5 -7 9 -17 9 -23z m-1512 -2 c-3 -17 -38 -28 -38
-11 0 6 7 8 15 4 9 -3 15 0 15 9 0 8 3 15 6 15 3 0 4 -7 2 -17z m545 -16 c-3
-5 -11 -6 -18 -3 -9 3 -13 -2 -12 -15 1 -11 9 -19 20 -19 11 0 15 4 11 12 -5
7 -3 8 5 3 17 -10 -1 -28 -24 -23 -10 1 -19 12 -21 22 -4 26 1 32 25 32 11 0
17 -4 14 -9z m-113 -23 c-1 -4 4 -11 12 -16 11 -8 10 -9 -1 -6 -8 2 -15 15
-17 29 -1 13 0 18 2 12 3 -7 5 -15 4 -19z m595 7 c-8 -14 -25 -14 -25 0 0 5 5
7 10 4 6 -3 10 -1 10 6 0 7 3 10 6 6 3 -3 3 -10 -1 -16z m-1023 -23 c-8 -8 -9
-4 -5 13 4 13 8 18 11 10 2 -7 -1 -18 -6 -23z m33 12 c-3 -5 5 -11 17 -13 22
-5 22 -5 -1 -4 -15 1 -25 9 -27 20 -1 9 2 15 7 11 5 -3 7 -9 4 -14z m1411 0
c19 0 18 -15 -3 -31 -17 -13 -17 -13 -3 5 13 18 13 19 0 14 -11 -4 -16 1 -17
16 0 11 1 15 4 9 3 -7 11 -13 19 -13z m-546 -10 c0 -5 -5 -10 -11 -10 -5 0 -7
5 -4 10 3 6 8 10 11 10 2 0 4 -4 4 -10z m518 -31 c-2 -6 -7 -10 -12 -9 -5 1
-13 -4 -18 -12 -8 -10 -9 -10 -5 2 2 8 10 14 16 13 16 -4 13 8 -6 24 -16 13
-16 13 5 3 13 -6 22 -16 20 -21z m-1383 3 c-3 -3 -11 0 -18 7 -9 10 -8 11 6 5
10 -3 15 -9 12 -12z m345 8 c0 -5 -4 -10 -10 -10 -5 0 -10 5 -10 10 0 6 5 10
10 10 6 0 10 -4 10 -10z m210 0 c12 -7 10 -9 -8 -7 -12 0 -22 5 -22 9 0 11 12
10 30 -2z m519 -4 c9 -11 9 -16 0 -22 -8 -4 -9 -3 -5 4 4 7 2 12 -3 12 -6 0
-11 5 -11 10 0 14 5 13 19 -4z m267 2 c4 -7 4 -10 -1 -6 -4 4 -14 0 -22 -10
-13 -15 -13 -15 -3 6 12 25 16 27 26 10z m-1264 -23 c-2 -5 7 -13 20 -17 22
-7 22 -7 -2 -5 -14 1 -24 8 -22 15 1 6 -7 12 -18 12 -14 0 -18 -5 -14 -17 5
-15 4 -15 -4 -3 -6 8 -8 18 -5 23 7 11 49 4 45 -8z m238 0 c-1 -5 7 -13 17
-17 17 -7 17 -8 0 -5 -10 1 -17 6 -17 12 1 5 -7 13 -17 17 -17 7 -17 8 0 5 10
-1 17 -6 17 -12z m285 5 c3 -5 1 -10 -4 -10 -6 0 -11 5 -11 10 0 6 2 10 4 10
3 0 8 -4 11 -10z m236 -22 c-10 -11 -11 -9 -6 7 7 20 6 20 -9 1 -9 -11 -16
-15 -16 -10 0 18 23 35 34 24 7 -7 6 -14 -3 -22z m-572 -9 c-13 -9 -27 -15
-31 -13 -11 7 -10 34 2 34 5 0 7 -7 3 -16 -5 -14 -3 -14 15 -3 11 7 18 17 15
23 -4 5 -1 6 7 1 10 -6 7 -12 -11 -26z m278 9 c-3 -8 -6 -5 -6 6 -1 11 2 17 5
13 3 -3 4 -12 1 -19z m48 -7 c-6 -5 -25 10 -25 20 0 5 6 4 14 -3 8 -7 12 -15
11 -17z m25 -8 c-11 -17 -11 -17 -6 0 3 10 6 24 7 30 0 9 2 9 5 0 3 -7 0 -20
-6 -30z m180 33 c0 -2 -7 -7 -16 -10 -8 -3 -12 -2 -9 4 6 10 25 14 25 6z m324
-11 c3 -8 1 -15 -4 -15 -6 0 -10 7 -10 15 0 8 2 15 4 15 2 0 6 -7 10 -15z
m170 0 c-7 -18 -20 -19 -30 -3 -4 6 -3 8 4 4 6 -3 13 -2 17 4 9 15 15 12 9 -5z
m-1136 -20 c-3 -3 -9 2 -12 12 -6 14 -5 15 5 6 7 -7 10 -15 7 -18z m519 5 c10
-15 10 -21 0 -26 -6 -4 -9 -3 -4 1 4 5 0 17 -10 27 -9 10 -12 18 -7 18 5 0 15
-9 21 -20z m48 10 c-3 -5 -14 -10 -23 -9 -14 0 -13 2 3 9 27 11 27 11 20 0z
m23 -10 c-7 -10 -14 -17 -17 -15 -4 4 18 35 25 35 2 0 -1 -9 -8 -20z m433 3
c13 -16 12 -17 -3 -4 -10 7 -18 15 -18 17 0 8 8 3 21 -13z m27 -8 c-3 -3 -9 2
-12 12 -6 14 -5 15 5 6 7 -7 10 -15 7 -18z m35 10 c-3 -10 -1 -15 7 -13 7 2
15 -4 17 -12 4 -13 3 -13 -6 0 -6 8 -11 11 -11 6 0 -6 -5 -5 -11 1 -6 6 -8 16
-5 22 10 16 16 13 9 -4z m94 -7 c-3 -8 -6 -5 -6 6 -1 11 2 17 5 13 3 -3 4 -12
1 -19z m-36 -11 c-10 -9 -11 -8 -5 6 3 10 9 15 12 12 3 -3 0 -11 -7 -18z
m-991 9 c0 -3 -4 -8 -10 -11 -5 -3 -10 -1 -10 4 0 6 5 11 10 11 6 0 10 -2 10
-4z m346 -8 c4 -7 3 -8 -4 -4 -7 4 -12 2 -12 -5 0 -7 -3 -10 -6 -6 -6 5 3 27
11 27 2 0 7 -5 11 -12z m134 2 c-8 -5 -18 -6 -22 -4 -4 3 -8 0 -8 -7 0 -7 -3
-10 -6 -6 -10 10 4 23 28 24 17 2 19 0 8 -7z m375 1 c3 -5 0 -13 -6 -17 -8 -5
-9 -3 -4 6 6 10 4 12 -9 7 -10 -4 -15 -3 -11 3 8 13 22 13 30 1z m-48 -7 c-3
-3 -12 -4 -19 -1 -8 3 -5 6 6 6 11 1 17 -2 13 -5z m-392 -14 c3 -6 -1 -7 -9
-4 -18 7 -21 14 -7 14 6 0 13 -4 16 -10z m501 3 c-8 -8 -56 -11 -51 -3 3 4 16
8 30 8 14 0 24 -3 21 -5z"/>
<path d="M424 999 c-3 -6 0 -17 7 -25 18 -17 44 -2 36 20 -7 18 -33 21 -43 5z"/>
<path d="M740 991 c0 -24 25 -34 40 -16 15 18 5 35 -21 35 -12 0 -19 -7 -19
-19z"/>
<path d="M1208 1003 c-32 -5 -38 -33 -8 -33 18 0 20 -7 20 -70 0 -66 -1 -71
-26 -80 -40 -16 -18 -30 47 -30 46 0 59 3 59 15 0 8 -9 15 -20 15 -17 0 -20 8
-22 92 -2 51 -7 92 -13 93 -5 1 -22 0 -37 -2z"/>
<path d="M2010 991 c0 -26 27 -34 40 -12 7 14 6 20 -6 25 -26 10 -34 7 -34
-13z"/>
<path d="M2143 1003 c-21 -8 -15 -33 7 -33 19 0 21 -5 18 -72 -3 -62 -6 -73
-20 -72 -11 1 -18 -5 -18 -17 0 -17 8 -19 60 -19 47 0 60 3 60 15 0 14 -12 19
-32 16 -5 0 -8 39 -8 89 0 71 -3 90 -14 90 -8 0 -20 2 -28 4 -7 3 -19 2 -25
-1z"/>
<path d="M317 993 c-3 -5 -3 -20 -2 -34 3 -23 0 -25 -26 -21 -43 6 -69 -21
-69 -73 0 -48 23 -76 61 -76 13 0 35 1 49 1 l25 0 1 105 c0 93 -2 105 -17 105
-10 0 -20 -3 -22 -7z m-6 -115 c9 -33 -9 -62 -34 -52 -17 6 -25 63 -10 78 14
14 37 0 44 -26z"/>
<path d="M1537 899 c-46 -98 -50 -119 -23 -119 15 0 109 197 100 211 -14 24
-34 1 -77 -92z"/>
<path d="M1727 967 c-76 -158 -84 -187 -54 -187 15 0 109 198 101 211 -11 19
-32 8 -47 -24z"/>
<path d="M893 960 c-3 -11 -12 -20 -19 -20 -8 0 -14 -9 -14 -20 0 -11 6 -19
13 -17 8 1 13 -13 14 -41 3 -66 40 -95 83 -65 26 18 16 35 -16 27 -24 -6 -25
-5 -22 36 2 33 7 44 21 46 11 1 21 5 24 8 9 9 -8 26 -28 26 -12 0 -19 7 -19
20 0 12 -7 20 -16 20 -9 0 -18 -9 -21 -20z"/>
<path d="M395 929 c-8 -12 1 -24 18 -24 7 0 12 -16 12 -40 0 -29 -4 -40 -15
-40 -8 0 -16 -8 -18 -17 -3 -15 5 -18 52 -18 43 0 56 3 56 15 0 8 -7 15 -15
15 -12 0 -15 13 -15 60 l0 60 -34 0 c-19 0 -38 -5 -41 -11z"/>
<path d="M556 921 c-18 -20 -21 -47 -6 -56 8 -5 8 -11 0 -20 -6 -8 -10 -19 -9
-27 1 -7 -1 -21 -6 -31 -24 -55 105 -73 134 -19 15 27 -9 55 -47 57 -39 2 -55
15 -19 15 28 0 59 34 51 55 -3 7 2 15 10 18 33 13 14 25 -38 26 -39 0 -58 -5
-70 -18z m59 -31 c0 -22 -29 -18 -33 3 -3 14 1 18 15 15 10 -2 18 -10 18 -18z
m25 -110 c0 -16 -57 -16 -74 1 -6 5 6 9 32 9 23 0 42 -4 42 -10z"/>
<path d="M710 926 c0 -8 8 -17 18 -20 17 -6 19 -18 13 -73 0 -7 -8 -13 -16
-13 -8 0 -15 -7 -15 -15 0 -12 13 -15 55 -15 42 0 55 3 55 15 0 8 -7 15 -15
15 -16 0 -16 1 -19 70 -1 44 -1 45 -38 48 -28 2 -38 -1 -38 -12z"/>
<path d="M1031 927 c-16 -20 -2 -28 36 -21 27 5 33 3 33 -10 0 -10 -4 -15 -9
-12 -5 3 -23 1 -40 -5 -57 -20 -50 -91 10 -89 13 0 38 0 56 0 l31 0 -2 60 c-2
33 -9 66 -16 75 -16 19 -83 20 -99 2z m66 -95 c-16 -15 -47 -11 -47 7 0 10 39
20 53 13 5 -2 2 -11 -6 -20z"/>
<path d="M1377 927 c-16 -11 -16 -14 -3 -32 14 -19 16 -19 33 -2 15 15 16 19
2 32 -12 13 -18 13 -32 2z"/>
<path d="M1826 921 c-23 -25 -12 -45 35 -66 28 -13 36 -22 29 -29 -7 -7 -19
-7 -40 1 -30 11 -40 8 -40 -13 0 -19 51 -32 87 -22 61 16 49 78 -18 92 -17 3
-28 10 -24 16 8 14 38 13 53 -2 9 -9 13 -7 18 6 14 37 -69 51 -100 17z"/>
<path d="M1982 923 c2 -10 10 -17 16 -15 8 1 12 -14 12 -44 0 -37 -3 -45 -15
-40 -10 4 -15 -1 -15 -14 0 -17 7 -20 49 -20 55 0 73 13 41 30 -11 6 -20 16
-19 23 1 7 1 31 0 55 -1 41 -2 42 -37 42 -29 0 -35 -3 -32 -17z"/>
<path d="M2297 923 c-25 -29 -28 -79 -6 -107 28 -35 65 -38 100 -9 35 30 38
69 8 107 -24 31 -77 36 -102 9z m73 -28 c26 -31 -14 -95 -42 -67 -15 15 -13
63 3 73 19 12 25 11 39 -6z"/>
<path d="M1371 827 c-8 -11 -6 -18 8 -31 16 -15 19 -15 31 -1 10 12 10 18 0
30 -15 19 -24 19 -39 2z"/>
</g>
</svg>
