<?xml version="1.0" standalone="no"?>
<!DOCTYPE svg PUBLIC "-//W3C//DTD SVG 20010904//EN"
 "http://www.w3.org/TR/2001/REC-SVG-20010904/DTD/svg10.dtd">
<svg version="1.0" xmlns="http://www.w3.org/2000/svg"
 width="512.000000pt" height="512.000000pt" viewBox="0 0 512.000000 512.000000"
 preserveAspectRatio="xMidYMid meet">
<metadata>
Created by potrace 1.14, written by Peter Selinger 2001-2017
</metadata>
<g transform="translate(0.000000,512.000000) scale(0.100000,-0.100000)"
fill="#000000" stroke="none">
<path d="M2370 4309 c-41 -5 -118 -18 -170 -30 -480 -109 -864 -411 -1076
-845 l-44 -90 -68 -14 c-84 -16 -247 -72 -326 -112 -34 -17 -98 -54 -142 -84
-645 -426 -732 -1403 -174 -1965 140 -140 295 -235 489 -299 169 -55 227 -62
584 -67 l327 -5 0 284 0 283 -144 144 -145 144 -65 -21 c-216 -71 -468 36
-569 241 -88 180 -51 394 92 538 190 190 493 186 673 -10 117 -128 159 -308
106 -466 l-21 -66 176 -178 c98 -98 178 -180 179 -182 1 -2 5 -161 8 -354 l5
-350 173 -3 172 -2 0 738 0 738 -62 30 c-266 125 -339 481 -148 722 146 185
450 220 642 74 275 -210 236 -651 -70 -796 l-62 -30 0 -738 0 -738 173 2 172
3 5 350 c3 193 7 352 8 354 1 2 81 84 178 181 l176 178 -21 67 c-51 163 -10
338 107 466 180 196 483 200 673 10 99 -100 145 -224 136 -369 -18 -295 -329
-503 -613 -410 l-65 21 -145 -144 -144 -144 0 -283 0 -284 328 5 c356 5 421
13 587 68 327 108 570 322 721 634 308 638 70 1395 -537 1704 -101 51 -281
114 -361 126 l-47 7 -45 92 c-146 299 -374 537 -669 696 -276 149 -631 215
-957 179z"/>
<path d="M2510 2888 c-68 -19 -120 -90 -120 -163 0 -145 170 -226 276 -132 47
40 64 76 64 132 0 74 -39 129 -112 160 -42 17 -58 17 -108 3z"/>
<path d="M1210 2243 c-126 -51 -147 -227 -38 -305 45 -32 153 -33 194 -2 55
41 69 70 69 144 0 74 -14 103 -68 144 -27 20 -126 32 -157 19z"/>
<path d="M3775 2236 c-42 -18 -83 -69 -91 -112 -15 -79 9 -143 70 -188 41 -31
149 -30 194 2 94 67 94 217 0 283 -39 28 -128 36 -173 15z"/>
</g>
</svg>
