<?xml version="1.0" standalone="no"?>
<!DOCTYPE svg PUBLIC "-//W3C//DTD SVG 20010904//EN"
 "http://www.w3.org/TR/2001/REC-SVG-20010904/DTD/svg10.dtd">
<svg version="1.0" xmlns="http://www.w3.org/2000/svg"
 width="1200.000000pt" height="1200.000000pt" viewBox="0 0 1200.000000 1200.000000"
 preserveAspectRatio="xMidYMid meet">
<metadata>
Created by potrace 1.14, written by Peter Selinger 2001-2017
</metadata>
<g transform="translate(0.000000,1200.000000) scale(0.100000,-0.100000)"
fill="#000000" stroke="none">
<path d="M3570 7960 c-183 -19 -344 -69 -519 -161 -171 -89 -292 -185 -413
-324 -395 -454 -470 -1088 -192 -1614 72 -135 129 -215 229 -320 285 -299 638
-451 1045 -451 250 0 444 49 670 166 138 72 253 159 372 282 l97 100 123 -123
c285 -283 621 -424 1011 -425 404 0 769 156 1054 453 l93 96 96 -99 c292 -301
640 -450 1046 -450 235 1 440 50 651 158 403 204 690 594 765 1038 117 688
-270 1350 -932 1595 -180 68 -405 97 -598 80 -162 -15 -248 -34 -387 -85 -234
-86 -432 -225 -604 -424 l-37 -42 -37 42 c-184 213 -397 356 -658 444 -151 50
-265 67 -445 67 -254 0 -447 -47 -668 -163 -177 -93 -287 -181 -435 -348 l-37
-42 -32 37 c-173 206 -402 361 -663 449 -177 59 -406 83 -595 64z"/>
<path d="M2039 3945 c-54 -29 -62 -110 -15 -154 66 -62 176 -11 176 81 0 11
-15 35 -34 54 -38 38 -81 44 -127 19z"/>
<path d="M3459 3945 c-54 -29 -62 -110 -15 -154 66 -62 176 -11 176 81 0 11
-15 35 -34 54 -38 38 -81 44 -127 19z"/>
<path d="M9139 3945 c-54 -29 -62 -110 -15 -154 66 -62 176 -11 176 81 0 11
-15 35 -34 54 -38 38 -81 44 -127 19z"/>
<path d="M7183 3874 c-14 -31 -113 -244 -219 -473 l-193 -416 67 -32 c37 -17
72 -32 78 -32 8 -1 411 847 442 930 3 7 -127 79 -143 79 -3 0 -18 -25 -32 -56z"/>
<path d="M7893 3874 c-14 -31 -113 -244 -219 -473 l-193 -416 67 -32 c37 -17
72 -32 78 -32 8 -1 411 847 442 930 3 7 -127 79 -143 79 -3 0 -18 -25 -32 -56z"/>
<path d="M1510 3749 l0 -171 -30 26 c-108 90 -293 37 -366 -105 -48 -96 -52
-262 -9 -366 42 -100 137 -165 239 -165 67 0 95 10 137 49 l26 24 6 -30 7 -31
84 0 85 0 -10 32 c-12 44 -12 849 1 882 l10 26 -90 0 -90 0 0 -171z m-84 -244
c53 -22 76 -81 75 -200 0 -146 -33 -200 -123 -200 -44 0 -53 4 -83 37 -42 46
-58 103 -53 193 4 88 30 144 78 167 43 22 60 22 106 3z"/>
<path d="M5382 3858 l3 -63 88 -3 87 -3 0 -339 0 -340 -90 0 -90 0 0 -65 0
-65 270 0 271 0 -3 63 -3 62 -92 3 -93 3 0 404 0 405 -175 0 -176 0 3 -62z"/>
<path d="M9642 3858 l3 -63 88 -3 87 -3 0 -339 0 -340 -90 0 -90 0 0 -65 0
-65 270 0 271 0 -3 63 -3 62 -92 3 -93 3 0 404 0 405 -175 0 -176 0 3 -62z"/>
<path d="M4200 3804 c-8 -1 -36 -6 -62 -9 l-48 -6 0 -80 0 -79 -70 0 -70 0 0
-65 0 -65 66 0 67 0 -5 -122 c-12 -274 31 -379 163 -407 62 -14 151 0 213 31
66 33 66 33 49 91 -8 29 -17 55 -19 59 -2 3 -28 -7 -57 -23 -77 -42 -136 -39
-161 10 -23 44 -28 107 -21 237 l7 124 104 0 104 0 1 38 c0 20 3 49 5 65 l5
27 -110 0 -109 0 4 43 c9 78 12 102 19 120 6 14 2 17 -26 16 -19 -1 -41 -3
-49 -5z"/>
<path d="M2704 3640 c-18 -6 -53 -25 -80 -42 -108 -74 -126 -209 -43 -317 19
-23 19 -24 -16 -62 -45 -50 -49 -111 -10 -157 l24 -29 -25 -13 c-59 -32 -82
-125 -45 -186 70 -114 368 -141 506 -46 83 57 112 178 62 253 -38 57 -87 75
-231 83 -156 9 -188 18 -184 54 l3 27 100 0 c91 0 104 2 148 28 65 39 100 93
105 167 2 33 0 72 -6 89 -9 27 -8 31 10 37 12 3 43 6 70 6 l49 0 -6 47 c-10
75 -10 74 -66 68 -28 -4 -70 -15 -93 -26 l-42 -21 -42 21 c-47 24 -142 33
-188 19z m126 -135 c35 -18 50 -43 50 -85 0 -17 -5 -40 -10 -51 -14 -25 -62
-49 -101 -49 -43 0 -99 56 -99 100 0 23 10 42 34 66 38 38 77 44 126 19z m48
-521 c51 -5 65 -10 78 -29 37 -56 -27 -90 -166 -89 -121 0 -170 18 -170 63 0
18 9 38 22 50 22 21 39 22 236 5z"/>
<path d="M4820 3635 c-56 -16 -128 -54 -147 -77 -8 -10 -1 -25 32 -62 l42 -49
35 26 c45 35 124 52 175 38 54 -15 72 -30 87 -76 l14 -40 -101 -6 c-56 -4
-116 -11 -133 -17 -130 -42 -200 -126 -192 -233 8 -110 89 -172 223 -172 75 0
134 19 172 55 l23 21 0 -31 0 -32 85 0 85 0 0 223 c0 243 -7 290 -54 352 -59
77 -222 114 -346 80z m235 -392 c-10 -56 -40 -106 -73 -125 -38 -23 -129 -24
-160 -2 -22 15 -30 62 -16 99 13 34 101 62 203 64 l53 1 -7 -37z"/>
<path d="M8407 3640 c-49 -13 -108 -43 -129 -67 -32 -35 -50 -94 -43 -137 13
-86 77 -134 240 -185 114 -35 145 -53 145 -85 0 -38 -34 -60 -103 -64 -104 -7
-196 31 -226 92 -15 33 -17 31 -65 -56 l-37 -66 34 -26 c109 -84 318 -107 433
-48 77 40 114 97 114 178 0 92 -59 148 -199 190 -136 41 -171 56 -182 76 -35
66 111 101 215 51 20 -9 36 -19 36 -22 0 -3 8 -16 18 -29 l18 -23 43 62 43 61
-22 23 c-39 41 -131 75 -217 80 -43 2 -95 0 -116 -5z"/>
<path d="M10535 3639 c-51 -13 -127 -62 -158 -102 -53 -70 -70 -118 -75 -209
-8 -157 48 -264 171 -327 58 -30 76 -34 140 -34 125 0 224 61 285 176 25 48
27 61 27 162 0 101 -2 114 -27 162 -72 135 -223 207 -363 172z m151 -148 c74
-45 104 -204 56 -297 -31 -61 -75 -94 -124 -94 -129 0 -197 178 -126 328 25
53 69 82 123 82 22 0 54 -9 71 -19z"/>
<path d="M1862 3568 l3 -63 78 -3 77 -3 0 -194 0 -195 -80 0 -80 0 0 -65 0
-65 235 0 235 0 0 65 0 65 -70 0 -70 0 0 260 0 260 -165 0 -166 0 3 -62z"/>
<path d="M3282 3568 l3 -63 78 -3 77 -3 0 -194 0 -195 -80 0 -80 0 0 -65 0
-65 235 0 235 0 0 65 0 65 -70 0 -70 0 0 260 0 260 -165 0 -166 0 3 -62z"/>
<path d="M8962 3568 l3 -63 78 -3 77 -3 0 -194 0 -195 -80 0 -80 0 0 -65 0
-65 235 0 235 0 0 65 0 65 -70 0 -70 0 0 260 0 260 -165 0 -166 0 3 -62z"/>
<path d="M6267 3590 c-53 -42 -55 -114 -5 -167 43 -46 124 -36 162 19 21 30
20 98 -2 124 -38 48 -111 59 -155 24z"/>
<path d="M6293 3175 c-89 -38 -88 -163 1 -200 72 -30 146 21 146 99 0 50 -21
83 -66 102 -40 17 -41 17 -81 -1z"/>
</g>
</svg>
